<?xml version="1.0" encoding="utf-8"?>
<!-- Generator: Adobe Illustrator 24.0.2, SVG Export Plug-In . SVG Version: 6.00 Build 0)  -->
<svg version="1.1" id="Capa_1" focusable="false" xmlns="http://www.w3.org/2000/svg" xmlns:xlink="http://www.w3.org/1999/xlink"
	 x="0px" y="0px" viewBox="0 0 480 512" style="enable-background:new 0 0 480 512;" xml:space="preserve">
<style type="text/css">
	.st0{fill:#FFFFFF;}
</style>
<path class="st0" d="M106.8,215.1L1.2,371c-3.1,5,0.1,11.5,5.9,12.1l208.3,22.1L106.8,215.1L106.8,215.1z M7.4,315.4l75.3-122.3
	l-76.6-46c-2.7-1.6-6.1,0.3-6.1,3.4v162.8C0,317.4,5.3,318.9,7.4,315.4z M18.3,423.6l194.4,87.7c5.3,2.5,11.4-1.4,11.4-7.3v-65.7
	L20.4,416C16,415.5,14.2,421.6,18.3,423.6L18.3,423.6z M99.5,165.8l79.9-142.9c4.3-7.1-3.6-15.3-10.8-11.1L17.8,110.3
	c-2.5,1.6-2.4,5.3,0.1,6.8L99.5,165.8L99.5,165.8z M240,176h109.2L253.6,7.6C250.5,2.5,245.3,0,240,0s-10.5,2.5-13.6,7.6L130.8,176
	H240z M473.9,147.1l-76.6,46l75.3,122.3c2.1,3.4,7.4,1.9,7.4-2.1V150.5C480,147.4,476.6,145.5,473.9,147.1z M380.5,165.8l81.5-48.7
	c2.5-1.5,2.6-5.2,0.1-6.8L311.4,11.7c-7.2-4.1-15.1,4.1-10.8,11.1L380.5,165.8z M459.5,416L256,438.3V504c0,5.8,6,9.7,11.4,7.3
	l194.4-87.7C465.8,421.6,464,415.5,459.5,416L459.5,416z M373.3,215.1L264.6,405.2l208.3-22.1c5.8-0.6,9-7.1,5.9-12.1L373.3,215.1
	L373.3,215.1z M240,208H139.6L240,383.8L340.4,208H240z"/>
</svg>
